<?xml version="1.0" encoding="UTF-8" standalone="no"?><svg width="150" height="26" viewBox="0 0 150 26" fill="none" xmlns="http://www.w3.org/2000/svg">
<path d="M5.30306 16.3185C4.09419 15.6632 3.07041 14.7243 2.32364 13.586C1.57687 12.4477 1.13048 11.1456 1.02456 9.79658C0.918631 8.44759 1.15648 7.09397 1.71675 5.85723C2.27703 4.62049 3.14218 3.53935 4.23455 2.71087C5.32691 1.8824 6.61229 1.33253 7.97528 1.11064C9.33826 0.888737 10.7362 1.00176 12.0436 1.43954C13.3509 1.87733 14.5268 2.62618 15.4656 3.61887C16.4044 4.61155 17.0768 5.817 17.4223 7.12697H18.7364C20.0297 7.1257 21.2773 7.595 22.237 8.44378C23.1967 9.29255 23.8001 10.4602 23.9301 11.7202C24.0601 12.9801 23.7073 14.2424 22.9403 15.2619C22.1733 16.2815 21.0468 16.9856 19.7794 17.2376C19.7794 17.2376 17.6874 17.8511 10.9082 17.2376M10.9082 17.2376V11.2128H16.123M10.9082 17.2376V25" stroke="white" stroke-width="2" stroke-linecap="round" stroke-linejoin="round"/>
<mask id="path-2-outside-1" maskUnits="userSpaceOnUse" x="43.798" y="5.244" width="106" height="17" fill="black">
<rect fill="white" x="43.798" y="5.244" width="106" height="17"/>
<path d="M51.6 20.285C49.7127 20.285 48.104 19.6453 46.774 18.366C45.4567 17.0867 44.798 15.3893 44.798 13.274C44.798 11.1713 45.4693 9.474 46.812 8.182C48.1547 6.89 49.7443 6.244 51.581 6.244C53.2023 6.244 54.5323 6.65566 55.571 7.479C56.6223 8.30233 57.3127 9.34733 57.642 10.614L55.495 11.336C55.2797 10.462 54.8427 9.75266 54.184 9.208C53.5253 8.66333 52.6577 8.391 51.581 8.391C50.3777 8.391 49.3327 8.82166 48.446 9.683C47.572 10.5317 47.135 11.7287 47.135 13.274C47.135 14.7813 47.572 15.9657 48.446 16.827C49.32 17.6757 50.3713 18.1 51.6 18.1C52.6513 18.1 53.519 17.815 54.203 17.245C54.887 16.675 55.3557 15.972 55.609 15.136L57.699 15.82C57.3697 17.074 56.673 18.1317 55.609 18.993C54.5577 19.8543 53.2213 20.285 51.6 20.285Z"/>
<path d="M61.8419 20H59.6379V6.244H61.8419V20Z"/>
<path d="M66.9078 17.53C67.4144 18.0493 68.0288 18.309 68.7508 18.309C69.4728 18.309 70.0808 18.0493 70.5748 17.53C71.0814 17.0107 71.3348 16.2887 71.3348 15.364C71.3348 14.452 71.0814 13.7427 70.5748 13.236C70.0808 12.7167 69.4728 12.457 68.7508 12.457C68.0288 12.457 67.4144 12.7167 66.9078 13.236C66.4138 13.7427 66.1668 14.452 66.1668 15.364C66.1668 16.276 66.4138 16.998 66.9078 17.53ZM68.7508 10.462C70.1441 10.462 71.2904 10.9243 72.1898 11.849C73.1018 12.7737 73.5578 13.9453 73.5578 15.364C73.5578 16.7827 73.1018 17.9607 72.1898 18.898C71.2904 19.8227 70.1441 20.285 68.7508 20.285C67.3701 20.285 66.2238 19.8227 65.3118 18.898C64.4124 17.9607 63.9628 16.7827 63.9628 15.364C63.9628 13.9453 64.4124 12.7737 65.3118 11.849C66.2238 10.9243 67.3701 10.462 68.7508 10.462Z"/>
<path d="M81.655 18.974C81.4397 19.3793 81.085 19.696 80.591 19.924C80.1097 20.152 79.5904 20.266 79.033 20.266C77.9564 20.266 77.1014 19.9177 76.468 19.221C75.8474 18.5243 75.537 17.644 75.537 16.58V10.747H77.741V16.181C77.741 16.8017 77.893 17.3083 78.197 17.701C78.501 18.0937 78.9697 18.29 79.603 18.29C80.2237 18.29 80.6987 18.1 81.028 17.72C81.37 17.34 81.541 16.8397 81.541 16.219V10.747H83.745V18.309C83.745 18.8663 83.7767 19.43 83.84 20H81.731C81.6804 19.7213 81.655 19.3793 81.655 18.974Z"/>
<path d="M88.0242 15.345C88.0242 16.2317 88.2522 16.9473 88.7082 17.492C89.1642 18.024 89.7659 18.29 90.5132 18.29C91.2352 18.29 91.8242 18.0177 92.2802 17.473C92.7362 16.9283 92.9642 16.2127 92.9642 15.326C92.9642 14.452 92.7425 13.7553 92.2992 13.236C91.8559 12.7167 91.2668 12.457 90.5322 12.457C89.7975 12.457 89.1959 12.723 88.7272 13.255C88.2585 13.7743 88.0242 14.471 88.0242 15.345ZM95.0922 6.244V18.309C95.0922 18.9297 95.1239 19.4933 95.1872 20H93.0782C93.0149 19.6453 92.9832 19.2463 92.9832 18.803C92.7552 19.221 92.4005 19.563 91.9192 19.829C91.4379 20.095 90.8869 20.228 90.2662 20.228C88.9489 20.228 87.8785 19.7657 87.0552 18.841C86.2318 17.9163 85.8202 16.751 85.8202 15.345C85.8202 13.9897 86.2318 12.8433 87.0552 11.906C87.8912 10.9687 88.9488 10.5 90.2282 10.5C90.9628 10.5 91.5519 10.633 91.9952 10.899C92.4512 11.165 92.7678 11.4753 92.9452 11.83V6.244H95.0922Z"/>
<path d="M105.155 20H102.875V6.529H111.254V8.676H105.155V12.457H110.627V14.566H105.155V20Z"/>
<path d="M114.853 17.53C115.36 18.0493 115.974 18.309 116.696 18.309C117.418 18.309 118.026 18.0493 118.52 17.53C119.027 17.0107 119.28 16.2887 119.28 15.364C119.28 14.452 119.027 13.7427 118.52 13.236C118.026 12.7167 117.418 12.457 116.696 12.457C115.974 12.457 115.36 12.7167 114.853 13.236C114.359 13.7427 114.112 14.452 114.112 15.364C114.112 16.276 114.359 16.998 114.853 17.53ZM116.696 10.462C118.089 10.462 119.236 10.9243 120.135 11.849C121.047 12.7737 121.503 13.9453 121.503 15.364C121.503 16.7827 121.047 17.9607 120.135 18.898C119.236 19.8227 118.089 20.285 116.696 20.285C115.315 20.285 114.169 19.8227 113.257 18.898C112.358 17.9607 111.908 16.7827 111.908 15.364C111.908 13.9453 112.358 12.7737 113.257 11.849C114.169 10.9243 115.315 10.462 116.696 10.462Z"/>
<path d="M125.837 14.661V20H123.633V10.747H125.78V11.982C126.071 11.4753 126.458 11.1017 126.939 10.861C127.433 10.6077 127.959 10.481 128.516 10.481C129.605 10.481 130.435 10.823 131.005 11.507C131.575 12.191 131.86 13.0713 131.86 14.148V20H129.656V14.528C129.656 13.9073 129.504 13.4133 129.2 13.046C128.896 12.666 128.415 12.476 127.756 12.476C127.148 12.476 126.673 12.685 126.331 13.103C126.002 13.5083 125.837 14.0277 125.837 14.661Z"/>
<path d="M137.336 7.916V10.747H139.255V12.704H137.336V16.998C137.336 17.4033 137.431 17.701 137.621 17.891C137.811 18.0683 138.109 18.157 138.514 18.157C138.767 18.157 139.021 18.1317 139.274 18.081V19.905C138.945 20.0443 138.495 20.114 137.925 20.114C137.064 20.114 136.386 19.8733 135.892 19.392C135.398 18.898 135.151 18.2203 135.151 17.359V12.704H133.441V10.747H133.916C134.385 10.747 134.739 10.614 134.98 10.348C135.221 10.082 135.341 9.73366 135.341 9.303V7.916H137.336Z"/>
<path d="M140.851 17.492L142.77 16.96C142.808 17.4033 142.992 17.777 143.321 18.081C143.65 18.385 144.094 18.537 144.651 18.537C145.082 18.537 145.417 18.4357 145.658 18.233C145.911 18.0303 146.038 17.777 146.038 17.473C146.038 16.941 145.677 16.599 144.955 16.447L143.587 16.143C142.789 15.9657 142.175 15.6363 141.744 15.155C141.313 14.6737 141.098 14.1037 141.098 13.445C141.098 12.6343 141.427 11.9377 142.086 11.355C142.745 10.7597 143.549 10.462 144.499 10.462C145.107 10.462 145.645 10.5507 146.114 10.728C146.583 10.9053 146.944 11.1397 147.197 11.431C147.463 11.7097 147.666 11.982 147.805 12.248C147.944 12.514 148.033 12.78 148.071 13.046L146.209 13.578C146.158 13.2233 145.994 12.9067 145.715 12.628C145.449 12.3367 145.044 12.191 144.499 12.191C144.119 12.191 143.802 12.2987 143.549 12.514C143.296 12.7167 143.169 12.9637 143.169 13.255C143.169 13.7743 143.479 14.0973 144.1 14.224L145.506 14.509C146.367 14.699 147.026 15.041 147.482 15.535C147.938 16.029 148.166 16.6243 148.166 17.321C148.166 18.0937 147.856 18.784 147.235 19.392C146.627 19.9873 145.772 20.285 144.67 20.285C144.037 20.285 143.467 20.19 142.96 20C142.466 19.81 142.073 19.5693 141.782 19.278C141.503 18.974 141.282 18.6763 141.117 18.385C140.965 18.081 140.876 17.7833 140.851 17.492Z"/>
</mask>
<path d="M51.6 20.285C49.7127 20.285 48.104 19.6453 46.774 18.366C45.4567 17.0867 44.798 15.3893 44.798 13.274C44.798 11.1713 45.4693 9.474 46.812 8.182C48.1547 6.89 49.7443 6.244 51.581 6.244C53.2023 6.244 54.5323 6.65566 55.571 7.479C56.6223 8.30233 57.3127 9.34733 57.642 10.614L55.495 11.336C55.2797 10.462 54.8427 9.75266 54.184 9.208C53.5253 8.66333 52.6577 8.391 51.581 8.391C50.3777 8.391 49.3327 8.82166 48.446 9.683C47.572 10.5317 47.135 11.7287 47.135 13.274C47.135 14.7813 47.572 15.9657 48.446 16.827C49.32 17.6757 50.3713 18.1 51.6 18.1C52.6513 18.1 53.519 17.815 54.203 17.245C54.887 16.675 55.3557 15.972 55.609 15.136L57.699 15.82C57.3697 17.074 56.673 18.1317 55.609 18.993C54.5577 19.8543 53.2213 20.285 51.6 20.285Z" fill="white"/>
<path d="M61.8419 20H59.6379V6.244H61.8419V20Z" fill="white"/>
<path d="M66.9078 17.53C67.4144 18.0493 68.0288 18.309 68.7508 18.309C69.4728 18.309 70.0808 18.0493 70.5748 17.53C71.0814 17.0107 71.3348 16.2887 71.3348 15.364C71.3348 14.452 71.0814 13.7427 70.5748 13.236C70.0808 12.7167 69.4728 12.457 68.7508 12.457C68.0288 12.457 67.4144 12.7167 66.9078 13.236C66.4138 13.7427 66.1668 14.452 66.1668 15.364C66.1668 16.276 66.4138 16.998 66.9078 17.53ZM68.7508 10.462C70.1441 10.462 71.2904 10.9243 72.1898 11.849C73.1018 12.7737 73.5578 13.9453 73.5578 15.364C73.5578 16.7827 73.1018 17.9607 72.1898 18.898C71.2904 19.8227 70.1441 20.285 68.7508 20.285C67.3701 20.285 66.2238 19.8227 65.3118 18.898C64.4124 17.9607 63.9628 16.7827 63.9628 15.364C63.9628 13.9453 64.4124 12.7737 65.3118 11.849C66.2238 10.9243 67.3701 10.462 68.7508 10.462Z" fill="white"/>
<path d="M81.655 18.974C81.4397 19.3793 81.085 19.696 80.591 19.924C80.1097 20.152 79.5904 20.266 79.033 20.266C77.9564 20.266 77.1014 19.9177 76.468 19.221C75.8474 18.5243 75.537 17.644 75.537 16.58V10.747H77.741V16.181C77.741 16.8017 77.893 17.3083 78.197 17.701C78.501 18.0937 78.9697 18.29 79.603 18.29C80.2237 18.29 80.6987 18.1 81.028 17.72C81.37 17.34 81.541 16.8397 81.541 16.219V10.747H83.745V18.309C83.745 18.8663 83.7767 19.43 83.84 20H81.731C81.6804 19.7213 81.655 19.3793 81.655 18.974Z" fill="white"/>
<path d="M88.0242 15.345C88.0242 16.2317 88.2522 16.9473 88.7082 17.492C89.1642 18.024 89.7659 18.29 90.5132 18.29C91.2352 18.29 91.8242 18.0177 92.2802 17.473C92.7362 16.9283 92.9642 16.2127 92.9642 15.326C92.9642 14.452 92.7425 13.7553 92.2992 13.236C91.8559 12.7167 91.2668 12.457 90.5322 12.457C89.7975 12.457 89.1959 12.723 88.7272 13.255C88.2585 13.7743 88.0242 14.471 88.0242 15.345ZM95.0922 6.244V18.309C95.0922 18.9297 95.1239 19.4933 95.1872 20H93.0782C93.0149 19.6453 92.9832 19.2463 92.9832 18.803C92.7552 19.221 92.4005 19.563 91.9192 19.829C91.4379 20.095 90.8869 20.228 90.2662 20.228C88.9489 20.228 87.8785 19.7657 87.0552 18.841C86.2318 17.9163 85.8202 16.751 85.8202 15.345C85.8202 13.9897 86.2318 12.8433 87.0552 11.906C87.8912 10.9687 88.9488 10.5 90.2282 10.5C90.9628 10.5 91.5519 10.633 91.9952 10.899C92.4512 11.165 92.7678 11.4753 92.9452 11.83V6.244H95.0922Z" fill="white"/>
<path d="M105.155 20H102.875V6.529H111.254V8.676H105.155V12.457H110.627V14.566H105.155V20Z" fill="white"/>
<path d="M114.853 17.53C115.36 18.0493 115.974 18.309 116.696 18.309C117.418 18.309 118.026 18.0493 118.52 17.53C119.027 17.0107 119.28 16.2887 119.28 15.364C119.28 14.452 119.027 13.7427 118.52 13.236C118.026 12.7167 117.418 12.457 116.696 12.457C115.974 12.457 115.36 12.7167 114.853 13.236C114.359 13.7427 114.112 14.452 114.112 15.364C114.112 16.276 114.359 16.998 114.853 17.53ZM116.696 10.462C118.089 10.462 119.236 10.9243 120.135 11.849C121.047 12.7737 121.503 13.9453 121.503 15.364C121.503 16.7827 121.047 17.9607 120.135 18.898C119.236 19.8227 118.089 20.285 116.696 20.285C115.315 20.285 114.169 19.8227 113.257 18.898C112.358 17.9607 111.908 16.7827 111.908 15.364C111.908 13.9453 112.358 12.7737 113.257 11.849C114.169 10.9243 115.315 10.462 116.696 10.462Z" fill="white"/>
<path d="M125.837 14.661V20H123.633V10.747H125.78V11.982C126.071 11.4753 126.458 11.1017 126.939 10.861C127.433 10.6077 127.959 10.481 128.516 10.481C129.605 10.481 130.435 10.823 131.005 11.507C131.575 12.191 131.86 13.0713 131.86 14.148V20H129.656V14.528C129.656 13.9073 129.504 13.4133 129.2 13.046C128.896 12.666 128.415 12.476 127.756 12.476C127.148 12.476 126.673 12.685 126.331 13.103C126.002 13.5083 125.837 14.0277 125.837 14.661Z" fill="white"/>
<path d="M137.336 7.916V10.747H139.255V12.704H137.336V16.998C137.336 17.4033 137.431 17.701 137.621 17.891C137.811 18.0683 138.109 18.157 138.514 18.157C138.767 18.157 139.021 18.1317 139.274 18.081V19.905C138.945 20.0443 138.495 20.114 137.925 20.114C137.064 20.114 136.386 19.8733 135.892 19.392C135.398 18.898 135.151 18.2203 135.151 17.359V12.704H133.441V10.747H133.916C134.385 10.747 134.739 10.614 134.98 10.348C135.221 10.082 135.341 9.73366 135.341 9.303V7.916H137.336Z" fill="white"/>
<path d="M140.851 17.492L142.77 16.96C142.808 17.4033 142.992 17.777 143.321 18.081C143.65 18.385 144.094 18.537 144.651 18.537C145.082 18.537 145.417 18.4357 145.658 18.233C145.911 18.0303 146.038 17.777 146.038 17.473C146.038 16.941 145.677 16.599 144.955 16.447L143.587 16.143C142.789 15.9657 142.175 15.6363 141.744 15.155C141.313 14.6737 141.098 14.1037 141.098 13.445C141.098 12.6343 141.427 11.9377 142.086 11.355C142.745 10.7597 143.549 10.462 144.499 10.462C145.107 10.462 145.645 10.5507 146.114 10.728C146.583 10.9053 146.944 11.1397 147.197 11.431C147.463 11.7097 147.666 11.982 147.805 12.248C147.944 12.514 148.033 12.78 148.071 13.046L146.209 13.578C146.158 13.2233 145.994 12.9067 145.715 12.628C145.449 12.3367 145.044 12.191 144.499 12.191C144.119 12.191 143.802 12.2987 143.549 12.514C143.296 12.7167 143.169 12.9637 143.169 13.255C143.169 13.7743 143.479 14.0973 144.1 14.224L145.506 14.509C146.367 14.699 147.026 15.041 147.482 15.535C147.938 16.029 148.166 16.6243 148.166 17.321C148.166 18.0937 147.856 18.784 147.235 19.392C146.627 19.9873 145.772 20.285 144.67 20.285C144.037 20.285 143.467 20.19 142.96 20C142.466 19.81 142.073 19.5693 141.782 19.278C141.503 18.974 141.282 18.6763 141.117 18.385C140.965 18.081 140.876 17.7833 140.851 17.492Z" fill="white"/>
<path d="M51.6 20.285C49.7127 20.285 48.104 19.6453 46.774 18.366C45.4567 17.0867 44.798 15.3893 44.798 13.274C44.798 11.1713 45.4693 9.474 46.812 8.182C48.1547 6.89 49.7443 6.244 51.581 6.244C53.2023 6.244 54.5323 6.65566 55.571 7.479C56.6223 8.30233 57.3127 9.34733 57.642 10.614L55.495 11.336C55.2797 10.462 54.8427 9.75266 54.184 9.208C53.5253 8.66333 52.6577 8.391 51.581 8.391C50.3777 8.391 49.3327 8.82166 48.446 9.683C47.572 10.5317 47.135 11.7287 47.135 13.274C47.135 14.7813 47.572 15.9657 48.446 16.827C49.32 17.6757 50.3713 18.1 51.6 18.1C52.6513 18.1 53.519 17.815 54.203 17.245C54.887 16.675 55.3557 15.972 55.609 15.136L57.699 15.82C57.3697 17.074 56.673 18.1317 55.609 18.993C54.5577 19.8543 53.2213 20.285 51.6 20.285Z" stroke="black" stroke-width="2" mask="url(#path-2-outside-1)"/>
<path d="M61.8419 20H59.6379V6.244H61.8419V20Z" stroke="black" stroke-width="2" mask="url(#path-2-outside-1)"/>
<path d="M66.9078 17.53C67.4144 18.0493 68.0288 18.309 68.7508 18.309C69.4728 18.309 70.0808 18.0493 70.5748 17.53C71.0814 17.0107 71.3348 16.2887 71.3348 15.364C71.3348 14.452 71.0814 13.7427 70.5748 13.236C70.0808 12.7167 69.4728 12.457 68.7508 12.457C68.0288 12.457 67.4144 12.7167 66.9078 13.236C66.4138 13.7427 66.1668 14.452 66.1668 15.364C66.1668 16.276 66.4138 16.998 66.9078 17.53ZM68.7508 10.462C70.1441 10.462 71.2904 10.9243 72.1898 11.849C73.1018 12.7737 73.5578 13.9453 73.5578 15.364C73.5578 16.7827 73.1018 17.9607 72.1898 18.898C71.2904 19.8227 70.1441 20.285 68.7508 20.285C67.3701 20.285 66.2238 19.8227 65.3118 18.898C64.4124 17.9607 63.9628 16.7827 63.9628 15.364C63.9628 13.9453 64.4124 12.7737 65.3118 11.849C66.2238 10.9243 67.3701 10.462 68.7508 10.462Z" stroke="black" stroke-width="2" mask="url(#path-2-outside-1)"/>
<path d="M81.655 18.974C81.4397 19.3793 81.085 19.696 80.591 19.924C80.1097 20.152 79.5904 20.266 79.033 20.266C77.9564 20.266 77.1014 19.9177 76.468 19.221C75.8474 18.5243 75.537 17.644 75.537 16.58V10.747H77.741V16.181C77.741 16.8017 77.893 17.3083 78.197 17.701C78.501 18.0937 78.9697 18.29 79.603 18.29C80.2237 18.29 80.6987 18.1 81.028 17.72C81.37 17.34 81.541 16.8397 81.541 16.219V10.747H83.745V18.309C83.745 18.8663 83.7767 19.43 83.84 20H81.731C81.6804 19.7213 81.655 19.3793 81.655 18.974Z" stroke="black" stroke-width="2" mask="url(#path-2-outside-1)"/>
<path d="M88.0242 15.345C88.0242 16.2317 88.2522 16.9473 88.7082 17.492C89.1642 18.024 89.7659 18.29 90.5132 18.29C91.2352 18.29 91.8242 18.0177 92.2802 17.473C92.7362 16.9283 92.9642 16.2127 92.9642 15.326C92.9642 14.452 92.7425 13.7553 92.2992 13.236C91.8559 12.7167 91.2668 12.457 90.5322 12.457C89.7975 12.457 89.1959 12.723 88.7272 13.255C88.2585 13.7743 88.0242 14.471 88.0242 15.345ZM95.0922 6.244V18.309C95.0922 18.9297 95.1239 19.4933 95.1872 20H93.0782C93.0149 19.6453 92.9832 19.2463 92.9832 18.803C92.7552 19.221 92.4005 19.563 91.9192 19.829C91.4379 20.095 90.8869 20.228 90.2662 20.228C88.9489 20.228 87.8785 19.7657 87.0552 18.841C86.2318 17.9163 85.8202 16.751 85.8202 15.345C85.8202 13.9897 86.2318 12.8433 87.0552 11.906C87.8912 10.9687 88.9488 10.5 90.2282 10.5C90.9628 10.5 91.5519 10.633 91.9952 10.899C92.4512 11.165 92.7678 11.4753 92.9452 11.83V6.244H95.0922Z" stroke="black" stroke-width="2" mask="url(#path-2-outside-1)"/>
<path d="M105.155 20H102.875V6.529H111.254V8.676H105.155V12.457H110.627V14.566H105.155V20Z" stroke="black" stroke-width="2" mask="url(#path-2-outside-1)"/>
<path d="M114.853 17.53C115.36 18.0493 115.974 18.309 116.696 18.309C117.418 18.309 118.026 18.0493 118.52 17.53C119.027 17.0107 119.28 16.2887 119.28 15.364C119.28 14.452 119.027 13.7427 118.52 13.236C118.026 12.7167 117.418 12.457 116.696 12.457C115.974 12.457 115.36 12.7167 114.853 13.236C114.359 13.7427 114.112 14.452 114.112 15.364C114.112 16.276 114.359 16.998 114.853 17.53ZM116.696 10.462C118.089 10.462 119.236 10.9243 120.135 11.849C121.047 12.7737 121.503 13.9453 121.503 15.364C121.503 16.7827 121.047 17.9607 120.135 18.898C119.236 19.8227 118.089 20.285 116.696 20.285C115.315 20.285 114.169 19.8227 113.257 18.898C112.358 17.9607 111.908 16.7827 111.908 15.364C111.908 13.9453 112.358 12.7737 113.257 11.849C114.169 10.9243 115.315 10.462 116.696 10.462Z" stroke="black" stroke-width="2" mask="url(#path-2-outside-1)"/>
<path d="M125.837 14.661V20H123.633V10.747H125.78V11.982C126.071 11.4753 126.458 11.1017 126.939 10.861C127.433 10.6077 127.959 10.481 128.516 10.481C129.605 10.481 130.435 10.823 131.005 11.507C131.575 12.191 131.86 13.0713 131.86 14.148V20H129.656V14.528C129.656 13.9073 129.504 13.4133 129.2 13.046C128.896 12.666 128.415 12.476 127.756 12.476C127.148 12.476 126.673 12.685 126.331 13.103C126.002 13.5083 125.837 14.0277 125.837 14.661Z" stroke="black" stroke-width="2" mask="url(#path-2-outside-1)"/>
<path d="M137.336 7.916V10.747H139.255V12.704H137.336V16.998C137.336 17.4033 137.431 17.701 137.621 17.891C137.811 18.0683 138.109 18.157 138.514 18.157C138.767 18.157 139.021 18.1317 139.274 18.081V19.905C138.945 20.0443 138.495 20.114 137.925 20.114C137.064 20.114 136.386 19.8733 135.892 19.392C135.398 18.898 135.151 18.2203 135.151 17.359V12.704H133.441V10.747H133.916C134.385 10.747 134.739 10.614 134.98 10.348C135.221 10.082 135.341 9.73366 135.341 9.303V7.916H137.336Z" stroke="black" stroke-width="2" mask="url(#path-2-outside-1)"/>
<path d="M140.851 17.492L142.77 16.96C142.808 17.4033 142.992 17.777 143.321 18.081C143.65 18.385 144.094 18.537 144.651 18.537C145.082 18.537 145.417 18.4357 145.658 18.233C145.911 18.0303 146.038 17.777 146.038 17.473C146.038 16.941 145.677 16.599 144.955 16.447L143.587 16.143C142.789 15.9657 142.175 15.6363 141.744 15.155C141.313 14.6737 141.098 14.1037 141.098 13.445C141.098 12.6343 141.427 11.9377 142.086 11.355C142.745 10.7597 143.549 10.462 144.499 10.462C145.107 10.462 145.645 10.5507 146.114 10.728C146.583 10.9053 146.944 11.1397 147.197 11.431C147.463 11.7097 147.666 11.982 147.805 12.248C147.944 12.514 148.033 12.78 148.071 13.046L146.209 13.578C146.158 13.2233 145.994 12.9067 145.715 12.628C145.449 12.3367 145.044 12.191 144.499 12.191C144.119 12.191 143.802 12.2987 143.549 12.514C143.296 12.7167 143.169 12.9637 143.169 13.255C143.169 13.7743 143.479 14.0973 144.1 14.224L145.506 14.509C146.367 14.699 147.026 15.041 147.482 15.535C147.938 16.029 148.166 16.6243 148.166 17.321C148.166 18.0937 147.856 18.784 147.235 19.392C146.627 19.9873 145.772 20.285 144.67 20.285C144.037 20.285 143.467 20.19 142.96 20C142.466 19.81 142.073 19.5693 141.782 19.278C141.503 18.974 141.282 18.6763 141.117 18.385C140.965 18.081 140.876 17.7833 140.851 17.492Z" stroke="black" stroke-width="2" mask="url(#path-2-outside-1)"/>
</svg>
